<svg width="61" height="71" viewBox="0 0 61 71" fill="none" xmlns="http://www.w3.org/2000/svg">
<g filter="url(#filter0_i_65_3)">
<path d="M24.6397 5.58626C24.6397 -0.221082 32.4837 -2.04505 35.0459 3.1665L36.957 7.05357C37.8913 8.95393 39.7788 10.2018 41.8932 10.317L52.5321 10.8968C56.4259 11.109 57.2592 16.4915 53.6119 17.8712C51.1275 18.811 50.477 22.0229 52.3999 23.8553L59.0811 30.2219C62.0636 33.064 58.9485 37.939 55.1163 36.4264C52.2618 35.2997 49.336 37.8908 50.1092 40.8605L52.0806 48.4322C53.2215 52.8142 47.4918 55.568 44.7827 51.9398C42.5358 48.9307 37.764 50.2446 37.374 53.9797L36.0749 66.4226C35.4289 72.6102 26.3529 72.4066 25.985 66.1963L25.7789 62.7172C25.5078 58.141 19.2106 57.1259 17.5153 61.3853C15.567 66.2806 8.21552 64.0283 9.34372 58.8817L12.575 44.1411C13.3184 40.75 9.34282 38.3433 6.68282 40.5742C3.26068 43.4443 -1.32362 38.8146 1.5801 35.4209L10.2563 25.2807C12.0667 23.1649 10.5632 19.8998 7.77872 19.8998C3.81944 19.8998 3.28229 14.1709 7.17252 13.435L20.9172 10.8347C23.0764 10.4262 24.6397 8.53947 24.6397 6.34195V5.58626Z" fill="#5972F8"/>
<path d="M34.597 3.38709L36.5081 7.27416C37.5221 9.33678 39.5708 10.6912 41.8658 10.8163L52.5047 11.3961C55.8587 11.5789 56.5765 16.2151 53.4348 17.4035C50.606 18.4736 49.8653 22.1309 52.0548 24.2173L58.736 30.5839C61.321 33.0471 58.621 37.2723 55.2997 35.9613C52.0647 34.6845 48.7489 37.6209 49.6251 40.9865L51.5965 48.5582C52.5991 52.409 47.5639 54.8292 45.1831 51.6407C42.6639 48.2669 37.3138 49.74 36.8765 53.9278L35.5774 66.3707C34.9952 71.9473 26.8154 71.7638 26.4839 66.1667L26.2778 62.6877C25.9751 57.5777 18.9435 56.4443 17.0506 61.2004C15.3294 65.5248 8.83533 63.5352 9.83193 58.9888L13.0632 44.2482C13.9087 40.3911 9.38683 37.6537 6.36133 40.1911C3.40944 42.6668 -0.544852 38.6733 1.95982 35.746L10.6361 25.6057C12.724 23.1655 10.99 19.3998 7.77853 19.3998C4.42632 19.3998 3.97156 14.5494 7.26523 13.9262L21.0099 11.326C23.4053 10.8728 25.1395 8.77976 25.1395 6.34194V5.58625C25.1395 0.308347 32.2684 -1.34934 34.597 3.38709Z" stroke="black"/>
</g>
<defs>
<filter id="filter0_i_65_3" x="-1.34131" y="0.093689" width="61.6118" height="72.8664" filterUnits="userSpaceOnUse" color-interpolation-filters="sRGB">
<feFlood flood-opacity="0" result="BackgroundImageFix"/>
<feBlend mode="normal" in="SourceGraphic" in2="BackgroundImageFix" result="shape"/>
<feColorMatrix in="SourceAlpha" type="matrix" values="0 0 0 0 0 0 0 0 0 0 0 0 0 0 0 0 0 0 127 0" result="hardAlpha"/>
<feOffset dx="-2" dy="2"/>
<feGaussianBlur stdDeviation="1"/>
<feComposite in2="hardAlpha" operator="arithmetic" k2="-1" k3="1"/>
<feColorMatrix type="matrix" values="0 0 0 0 0 0 0 0 0 0 0 0 0 0 0 0 0 0 0.25 0"/>
<feBlend mode="normal" in2="shape" result="effect1_innerShadow_65_3"/>
</filter>
</defs>
</svg>
