<svg width="65" height="75" viewBox="0 0 65 75" fill="none" xmlns="http://www.w3.org/2000/svg">
<g filter="url(#filter0_d_33_21)">
<path d="M28.6399 5.58628C28.6399 -0.221058 36.4839 -2.04503 39.0461 3.16652L40.9572 7.05359C41.8915 8.95395 43.779 10.2018 45.8934 10.317L56.5323 10.8968C60.4261 11.109 61.2594 16.4915 57.6121 17.8712V17.8712C55.1277 18.811 54.4772 22.0229 56.4001 23.8553L63.0813 30.2219C66.0638 33.064 62.9487 37.939 59.1165 36.4264V36.4264C56.262 35.2997 53.3362 37.8908 54.1094 40.8605L56.0808 48.4322C57.2217 52.8142 51.492 55.568 48.7829 51.9398V51.9398C46.536 48.9307 41.7642 50.2446 41.3742 53.9797L40.0751 66.4226C39.4291 72.6102 30.3531 72.4066 29.9852 66.1963L29.7791 62.7172C29.508 58.141 23.2108 57.1259 21.5155 61.3853V61.3853C19.5672 66.2806 12.2157 64.0283 13.3439 58.8817L16.5752 44.1411C17.3186 40.75 13.343 38.3433 10.683 40.5742V40.5742C7.26086 43.4443 2.67656 38.8146 5.58028 35.4209L14.2565 25.2807C16.0669 23.1649 14.5634 19.8998 11.7789 19.8998V19.8998C7.81962 19.8998 7.28247 14.1709 11.1727 13.435L24.9174 10.8347C27.0766 10.4262 28.6399 8.53949 28.6399 6.34197V5.58628Z" fill="#5972F8"/>
<path d="M38.5974 3.38712L40.5085 7.27419C41.5225 9.33681 43.5712 10.6912 45.8662 10.8163L56.5051 11.3961C59.8591 11.5789 60.5769 16.2151 57.4352 17.4035C54.6064 18.4736 53.8657 22.1309 56.0552 24.2173L62.7364 30.5839C65.3214 33.0471 62.6214 37.2723 59.3001 35.9613C56.0651 34.6845 52.7493 37.6209 53.6255 40.9865L55.5969 48.5582C56.5995 52.409 51.5643 54.8292 49.1835 51.6407C46.6643 48.2669 41.3142 49.74 40.8769 53.9278L39.5778 66.3707C38.9956 71.9473 30.8158 71.7638 30.4843 66.1667L30.2782 62.6877C29.9755 57.5777 22.9439 56.4443 21.051 61.2004C19.3298 65.5248 12.8357 63.5352 13.8323 58.9888L17.0636 44.2482C17.9091 40.3911 13.3872 37.6537 10.3617 40.1911C7.40981 42.6668 3.45552 38.6733 5.96019 35.746L14.6365 25.6057C16.7244 23.1655 14.9904 19.3998 11.7789 19.3998C8.42669 19.3998 7.97193 14.5494 11.2656 13.9262L25.0103 11.326C27.4057 10.8728 29.1399 8.77979 29.1399 6.34197V5.58628C29.1399 0.308376 36.2688 -1.34931 38.5974 3.38712Z" stroke="black"/>
</g>
<defs>
<filter id="filter0_d_33_21" x="0.658936" y="0.09375" width="63.6116" height="74.8663" filterUnits="userSpaceOnUse" color-interpolation-filters="sRGB">
<feFlood flood-opacity="0" result="BackgroundImageFix"/>
<feColorMatrix in="SourceAlpha" type="matrix" values="0 0 0 0 0 0 0 0 0 0 0 0 0 0 0 0 0 0 127 0" result="hardAlpha"/>
<feOffset dx="-2" dy="2"/>
<feGaussianBlur stdDeviation="1"/>
<feComposite in2="hardAlpha" operator="out"/>
<feColorMatrix type="matrix" values="0 0 0 0 0 0 0 0 0 0 0 0 0 0 0 0 0 0 0.25 0"/>
<feBlend mode="normal" in2="BackgroundImageFix" result="effect1_dropShadow_33_21"/>
<feBlend mode="normal" in="SourceGraphic" in2="effect1_dropShadow_33_21" result="shape"/>
</filter>
</defs>
</svg>
